<?xml version="1.0" encoding="UTF-8" standalone="no"?>
<!-- Created with Inkscape (http://www.inkscape.org/) -->

<svg
   xmlns:dc="http://purl.org/dc/elements/1.1/"
   xmlns:cc="http://creativecommons.org/ns#"
   xmlns:rdf="http://www.w3.org/1999/02/22-rdf-syntax-ns#"
   xmlns:svg="http://www.w3.org/2000/svg"
   xmlns="http://www.w3.org/2000/svg"
   xmlns:sodipodi="http://sodipodi.sourceforge.net/DTD/sodipodi-0.dtd"
   xmlns:inkscape="http://www.inkscape.org/namespaces/inkscape"
   width="210mm"
   height="297mm"
   viewBox="0 0 744.09448819 1052.3622047"
   id="svg5147"
   version="1.1"
   inkscape:version="0.91 r13725"
   sodipodi:docname="bagcoffee.svg">
  <defs
     id="defs5149" />
  <sodipodi:namedview
     id="base"
     pagecolor="#ffffff"
     bordercolor="#666666"
     borderopacity="1.0"
     inkscape:pageopacity="0.0"
     inkscape:pageshadow="2"
     inkscape:zoom="0.69453125"
     inkscape:cx="403.95349"
     inkscape:cy="609.13179"
     inkscape:document-units="px"
     inkscape:current-layer="layer1"
     showgrid="false"
     inkscape:window-width="1280"
     inkscape:window-height="689"
     inkscape:window-x="0"
     inkscape:window-y="1"
     inkscape:window-maximized="1" />
  <metadata
     id="metadata5152">
    <rdf:RDF>
      <cc:Work
         rdf:about="">
        <dc:format>image/svg+xml</dc:format>
        <dc:type
           rdf:resource="http://purl.org/dc/dcmitype/StillImage" />
        <dc:title></dc:title>
      </cc:Work>
    </rdf:RDF>
  </metadata>
  <g
     inkscape:label="Layer 1"
     inkscape:groupmode="layer"
     id="layer1">
    <g
       id="g5780"
       transform="matrix(9.8381611,0,0,9.8381611,-3669.8357,-3960.2523)">
      <path
         sodipodi:nodetypes="csccscsssc"
         inkscape:connector-curvature="0"
         id="path5776"
         d="m 406.92913,433.68954 c 0,0 -0.73958,1.53589 -1.43982,1.52981 -4.28176,-0.0372 -14.41293,0.18137 -14.30821,0 0.42623,-1.59067 1.35465,-3.17188 2.06565,-3.57781 4.04079,0.0862 11.54017,-0.24566 14.67226,0 2.53117,0.19853 1.20147,27.38913 1.12486,27.91656 -0.12452,0.85723 -1.554,1.7848 -2.26083,2.32897 -0.15174,0.11682 -15.37423,0.30213 -15.55468,-0.24912 -1.01151,-3.08996 -0.41348,-19.01145 0.22271,-23.17905 0.15843,-1.03784 1.68729,-2.78965 1.68729,-2.78965"
         style="fill:none;fill-opacity:1;fill-rule:evenodd;stroke:#000000;stroke-width:1px;stroke-linecap:round;stroke-linejoin:round;stroke-opacity:1" />
      <path
         sodipodi:nodetypes="csc"
         inkscape:connector-curvature="0"
         id="path5778"
         d="m 407.82902,436.20922 c 0,0 -2.03324,1.40328 -2.02474,2.65467 0.0462,6.799 0.005,21.77702 0,21.68729"
         style="fill:none;fill-rule:evenodd;stroke:#000000;stroke-width:1px;stroke-linecap:round;stroke-linejoin:round;stroke-opacity:1" />
    </g>
  </g>
</svg>
